<svg xmlns="http://www.w3.org/2000/svg" viewBox="0 0 24 24" width="24" height="24">
  <rect width="24" height="24" rx="5.5" fill="#3052F8"/>
  <path d="M7.2 5.8c-.5-.5-1-.75-1.45-.75s-.87.24-1.25.72c-.37.48-.56.9-.56 1.26 0 .36.19.76.56 1.2L8.74 12l-4.24 3.77c-.37.44-.56.84-.56 1.2 0 .36.19.78.56 1.26.38.48.8.72 1.25.72s.95-.25 1.45-.75L12 14.26l4.8 3.94c.5.5 1 .75 1.45.75s.87-.24 1.25-.72c.37-.48.56-.9.56-1.26 0-.36-.19-.76-.56-1.2L15.26 12l4.24-3.77c.37-.44.56-.84.56-1.2 0-.36-.19-.78-.56-1.26-.38-.48-.8-.72-1.25-.72s-.95.25-1.45.75L12 9.74 7.2 5.8z" fill="white"/>
</svg>
